<svg xmlns="http://www.w3.org/2000/svg" viewBox="0 0 24 24"><path fill="none" stroke="#4E9696" stroke-linecap="round" stroke-linejoin="round" stroke-width="1.7" d="M2.5 7.5v6c0 3.771 0 5.657 1.17 6.828C4.843 21.5 6.729 21.5 10.5 21.5H14m7.5-7.5V7.5M3.868 5.315L2.5 7.5h19l-1.252-2.087c-.854-1.423-1.28-2.134-1.968-2.524c-.688-.389-1.517-.389-3.177-.389h-6.15c-1.624 0-2.436 0-3.114.375c-.678.376-1.109 1.064-1.97 2.44M12 7.5v-5m4 12s-2.5 1.841-2.5 2.5s2.5 2.5 2.5 2.5M14 17h5.25a2.25 2.25 0 1 1 0 4.5h-.75m-8.5-11h4"/></svg>