<svg xmlns="http://www.w3.org/2000/svg" viewBox="0 0 24 24"><g fill="none" stroke="#4E9696" stroke-linecap="round" stroke-linejoin="round" stroke-width="1.6"><path d="M16 6.25v9.51q-.18.225-.29.49H8.29a2.5 2.5 0 0 0-4.58 0H3a1 1 0 0 1-1-1v-9a2 2 0 0 1 2-2h10a2 2 0 0 1 2 2m6 7.11v2.89h-1.71a2.49 2.49 0 0 0-4.29-.49V7.25h2.43a1 1 0 0 1 .86.49l.91 1.51l1.23 2.05a4 4 0 0 1 .57 2.06"/><path d="M8.5 17.25a2.5 2.5 0 1 1-4.79-1a2.5 2.5 0 0 1 4.79 1m12 0a2.5 2.5 0 1 1-4.79-1q.11-.265.29-.49a2.49 2.49 0 0 1 4.29.49c.14.315.212.656.21 1m-9.5-6H6m5-3H6"/></g></svg>